<?xml version="1.0" encoding="utf-8"?>
<!-- Generator: Adobe Illustrator 14.0.0, SVG Export Plug-In . SVG Version: 6.00 Build 43363)  -->
<!DOCTYPE svg PUBLIC "-//W3C//DTD SVG 1.1//EN" "http://www.w3.org/Graphics/SVG/1.1/DTD/svg11.dtd">
<svg version="1.1" id="Warstwa_2" xmlns="http://www.w3.org/2000/svg" xmlns:xlink="http://www.w3.org/1999/xlink" x="0px" y="0px"
	 width="136.234px" height="62.163px" viewBox="134.118 42.816 136.234 62.163"
	 enable-background="new 134.118 42.816 136.234 62.163" xml:space="preserve">
<path fill="#B6002D" d="M240.112,104.979h12.569l17.119-62.163h-12.025l-10.587,38.446c-0.119,0.426-0.548,0.715-1.07,0.715
	c-0.521,0-0.952-0.287-1.068-0.715l-10.589-38.446h-12.013l-10.587,38.446c-0.117,0.426-0.547,0.715-1.069,0.715
	c-0.521,0-0.952-0.289-1.069-0.715l-10.588-38.447h-12.013l-10.587,38.447c-0.119,0.428-0.548,0.715-1.069,0.715
	c-0.522,0-0.953-0.289-1.07-0.715l-10.588-38.447h-12.57l-17.119,62.164h12.025l10.587-38.447c0.118-0.427,0.547-0.714,1.069-0.714
	c0.521,0,0.951,0.287,1.069,0.714l10.588,38.447h12.014l10.588-38.447c0.118-0.427,0.548-0.714,1.069-0.714
	c0.522,0,0.952,0.287,1.07,0.714l10.587,38.447h12.014l10.587-38.447c0.117-0.427,0.547-0.714,1.069-0.714
	c0.523,0,0.953,0.287,1.07,0.714L240.112,104.979L240.112,104.979z"/>
</svg>
